<svg width="800" height="500" viewBox="0 0 800 500" xmlns="http://www.w3.org/2000/svg">
  <!-- 배경 -->
  <rect width="800" height="500" fill="#f8f9fa"/>
  
  <!-- 제목 -->
  <text x="400" y="30" text-anchor="middle" font-size="20" font-weight="bold" fill="#343a40">클라우드 서비스 모델</text>
  
  <!-- IaaS -->
  <rect x="50" y="60" width="200" height="350" fill="#fff3cd" stroke="#ffc107" stroke-width="2" rx="10"/>
  <text x="150" y="90" text-anchor="middle" font-size="16" font-weight="bold" fill="#856404">IaaS</text>
  <text x="150" y="110" text-anchor="middle" font-size="12" fill="#856404">Infrastructure as a Service</text>
  
  <!-- IaaS 스택 -->
  <rect x="70" y="130" width="160" height="30" fill="#dc3545" rx="5"/>
  <text x="150" y="150" text-anchor="middle" font-size="12" fill="#fff">애플리케이션 (고객 관리)</text>
  
  <rect x="70" y="170" width="160" height="30" fill="#dc3545" rx="5"/>
  <text x="150" y="190" text-anchor="middle" font-size="12" fill="#fff">런타임 (고객 관리)</text>
  
  <rect x="70" y="210" width="160" height="30" fill="#dc3545" rx="5"/>
  <text x="150" y="230" text-anchor="middle" font-size="12" fill="#fff">OS (고객 관리)</text>
  
  <rect x="70" y="250" width="160" height="30" fill="#28a745" rx="5"/>
  <text x="150" y="270" text-anchor="middle" font-size="12" fill="#fff">가상화 (AWS 관리)</text>
  
  <rect x="70" y="290" width="160" height="30" fill="#28a745" rx="5"/>
  <text x="150" y="310" text-anchor="middle" font-size="12" fill="#fff">서버 (AWS 관리)</text>
  
  <rect x="70" y="330" width="160" height="30" fill="#28a745" rx="5"/>
  <text x="150" y="350" text-anchor="middle" font-size="12" fill="#fff">스토리지 (AWS 관리)</text>
  
  <rect x="70" y="370" width="160" height="30" fill="#28a745" rx="5"/>
  <text x="150" y="390" text-anchor="middle" font-size="12" fill="#fff">네트워크 (AWS 관리)</text>
  
  <!-- PaaS -->
  <rect x="300" y="60" width="200" height="350" fill="#d1ecf1" stroke="#17a2b8" stroke-width="2" rx="10"/>
  <text x="400" y="90" text-anchor="middle" font-size="16" font-weight="bold" fill="#0c5460">PaaS</text>
  <text x="400" y="110" text-anchor="middle" font-size="12" fill="#0c5460">Platform as a Service</text>
  
  <!-- PaaS 스택 -->
  <rect x="320" y="130" width="160" height="30" fill="#dc3545" rx="5"/>
  <text x="400" y="150" text-anchor="middle" font-size="12" fill="#fff">애플리케이션 (고객 관리)</text>
  
  <rect x="320" y="170" width="160" height="30" fill="#28a745" rx="5"/>
  <text x="400" y="190" text-anchor="middle" font-size="12" fill="#fff">런타임 (AWS 관리)</text>
  
  <rect x="320" y="210" width="160" height="30" fill="#28a745" rx="5"/>
  <text x="400" y="230" text-anchor="middle" font-size="12" fill="#fff">OS (AWS 관리)</text>
  
  <rect x="320" y="250" width="160" height="30" fill="#28a745" rx="5"/>
  <text x="400" y="270" text-anchor="middle" font-size="12" fill="#fff">가상화 (AWS 관리)</text>
  
  <rect x="320" y="290" width="160" height="30" fill="#28a745" rx="5"/>
  <text x="400" y="310" text-anchor="middle" font-size="12" fill="#fff">서버 (AWS 관리)</text>
  
  <rect x="320" y="330" width="160" height="30" fill="#28a745" rx="5"/>
  <text x="400" y="350" text-anchor="middle" font-size="12" fill="#fff">스토리지 (AWS 관리)</text>
  
  <rect x="320" y="370" width="160" height="30" fill="#28a745" rx="5"/>
  <text x="400" y="390" text-anchor="middle" font-size="12" fill="#fff">네트워크 (AWS 관리)</text>
  
  <!-- SaaS -->
  <rect x="550" y="60" width="200" height="350" fill="#d4edda" stroke="#28a745" stroke-width="2" rx="10"/>
  <text x="650" y="90" text-anchor="middle" font-size="16" font-weight="bold" fill="#155724">SaaS</text>
  <text x="650" y="110" text-anchor="middle" font-size="12" fill="#155724">Software as a Service</text>
  
  <!-- SaaS 스택 -->
  <rect x="570" y="130" width="160" height="30" fill="#28a745" rx="5"/>
  <text x="650" y="150" text-anchor="middle" font-size="12" fill="#fff">애플리케이션 (AWS 관리)</text>
  
  <rect x="570" y="170" width="160" height="30" fill="#28a745" rx="5"/>
  <text x="650" y="190" text-anchor="middle" font-size="12" fill="#fff">런타임 (AWS 관리)</text>
  
  <rect x="570" y="210" width="160" height="30" fill="#28a745" rx="5"/>
  <text x="650" y="230" text-anchor="middle" font-size="12" fill="#fff">OS (AWS 관리)</text>
  
  <rect x="570" y="250" width="160" height="30" fill="#28a745" rx="5"/>
  <text x="650" y="270" text-anchor="middle" font-size="12" fill="#fff">가상화 (AWS 관리)</text>
  
  <rect x="570" y="290" width="160" height="30" fill="#28a745" rx="5"/>
  <text x="650" y="310" text-anchor="middle" font-size="12" fill="#fff">서버 (AWS 관리)</text>
  
  <rect x="570" y="330" width="160" height="30" fill="#28a745" rx="5"/>
  <text x="650" y="350" text-anchor="middle" font-size="12" fill="#fff">스토리지 (AWS 관리)</text>
  
  <rect x="570" y="370" width="160" height="30" fill="#28a745" rx="5"/>
  <text x="650" y="390" text-anchor="middle" font-size="12" fill="#fff">네트워크 (AWS 관리)</text>
  
  <!-- 범례 -->
  <rect x="50" y="440" width="20" height="15" fill="#dc3545"/>
  <text x="80" y="452" font-size="12" fill="#343a40">고객 관리</text>
  
  <rect x="200" y="440" width="20" height="15" fill="#28a745"/>
  <text x="230" y="452" font-size="12" fill="#343a40">AWS 관리</text>
  
  <!-- 비유 -->
  <text x="150" y="480" text-anchor="middle" font-size="11" fill="#6c757d">빈 사무실 임대</text>
  <text x="400" y="480" text-anchor="middle" font-size="11" fill="#6c757d">가구 갖춘 사무실</text>
  <text x="650" y="480" text-anchor="middle" font-size="11" fill="#6c757d">호텔 서비스</text>
</svg>