<?xml version="1.0" encoding="UTF-8" standalone="no"?>
<svg width="800" height="600" xmlns="http://www.w3.org/2000/svg">
  <!-- 배경 -->
  <rect x="0" y="0" width="800" height="600" fill="#f8f9fa"/>
  
  <!-- 제목 -->
  <text x="400" y="40" font-family="Arial" font-size="24" font-weight="bold" text-anchor="middle" fill="#232f3e">VPC 실습 아키텍처</text>
  
  <!-- AWS 클라우드 -->
  <rect x="50" y="80" width="700" height="480" rx="10" fill="#ffffff" stroke="#232f3e" stroke-width="2" stroke-dasharray="5,5"/>
  <text x="120" y="110" font-family="Arial" font-size="18" font-weight="bold" fill="#232f3e">AWS 클라우드</text>
  
  <!-- VPC -->
  <rect x="100" y="130" width="600" height="400" rx="10" fill="#E8F4FA" stroke="#147EBA" stroke-width="2"/>
  <text x="150" y="160" font-family="Arial" font-size="18" font-weight="bold" fill="#147EBA">VPC (10.0.0.0/16)</text>
  
  <!-- 가용 영역 -->
  <rect x="120" y="180" width="250" height="330" rx="5" fill="#F2F7F9" stroke="#147EBA" stroke-width="1" stroke-dasharray="5,5"/>
  <text x="245" y="200" font-family="Arial" font-size="14" font-weight="bold" text-anchor="middle" fill="#147EBA">가용 영역 A</text>
  
  <rect x="430" y="180" width="250" height="330" rx="5" fill="#F2F7F9" stroke="#147EBA" stroke-width="1" stroke-dasharray="5,5"/>
  <text x="555" y="200" font-family="Arial" font-size="14" font-weight="bold" text-anchor="middle" fill="#147EBA">가용 영역 B</text>
  
  <!-- 퍼블릭 서브넷 -->
  <rect x="140" y="220" width="210" height="80" rx="5" fill="#C5E5F5" stroke="#147EBA" stroke-width="1"/>
  <text x="245" y="240" font-family="Arial" font-size="14" font-weight="bold" text-anchor="middle" fill="#147EBA">퍼블릭 서브넷</text>
  <text x="245" y="260" font-family="Arial" font-size="12" text-anchor="middle" fill="#147EBA">10.0.0.0/24</text>
  
  <rect x="450" y="220" width="210" height="80" rx="5" fill="#C5E5F5" stroke="#147EBA" stroke-width="1"/>
  <text x="555" y="240" font-family="Arial" font-size="14" font-weight="bold" text-anchor="middle" fill="#147EBA">퍼블릭 서브넷</text>
  <text x="555" y="260" font-family="Arial" font-size="12" text-anchor="middle" fill="#147EBA">10.0.3.0/24</text>
  
  <!-- 프라이빗 애플리케이션 서브넷 -->
  <rect x="140" y="310" width="210" height="80" rx="5" fill="#E9F5E9" stroke="#3B7A57" stroke-width="1"/>
  <text x="245" y="330" font-family="Arial" font-size="14" font-weight="bold" text-anchor="middle" fill="#3B7A57">프라이빗 앱 서브넷</text>
  <text x="245" y="350" font-family="Arial" font-size="12" text-anchor="middle" fill="#3B7A57">10.0.1.0/24</text>
  
  <rect x="450" y="310" width="210" height="80" rx="5" fill="#E9F5E9" stroke="#3B7A57" stroke-width="1"/>
  <text x="555" y="330" font-family="Arial" font-size="14" font-weight="bold" text-anchor="middle" fill="#3B7A57">프라이빗 앱 서브넷</text>
  <text x="555" y="350" font-family="Arial" font-size="12" text-anchor="middle" fill="#3B7A57">10.0.4.0/24</text>
  
  <!-- 프라이빗 데이터베이스 서브넷 -->
  <rect x="140" y="400" width="210" height="80" rx="5" fill="#F9E8FA" stroke="#9B4F96" stroke-width="1"/>
  <text x="245" y="420" font-family="Arial" font-size="14" font-weight="bold" text-anchor="middle" fill="#9B4F96">프라이빗 DB 서브넷</text>
  <text x="245" y="440" font-family="Arial" font-size="12" text-anchor="middle" fill="#9B4F96">10.0.2.0/24</text>
  
  <rect x="450" y="400" width="210" height="80" rx="5" fill="#F9E8FA" stroke="#9B4F96" stroke-width="1"/>
  <text x="555" y="420" font-family="Arial" font-size="14" font-weight="bold" text-anchor="middle" fill="#9B4F96">프라이빗 DB 서브넷</text>
  <text x="555" y="440" font-family="Arial" font-size="12" text-anchor="middle" fill="#9B4F96">10.0.5.0/24</text>
  
  <!-- 인터넷 게이트웨이 -->
  <rect x="370" y="80" width="60" height="30" rx="5" fill="#FF9900" stroke="#E05243" stroke-width="1"/>
  <text x="400" y="100" font-family="Arial" font-size="12" font-weight="bold" text-anchor="middle" fill="#232f3e">IGW</text>
  
  <!-- NAT 게이트웨이 -->
  <rect x="180" y="240" width="40" height="30" rx="5" fill="#FF9900" stroke="#E05243" stroke-width="1"/>
  <text x="200" y="260" font-family="Arial" font-size="10" font-weight="bold" text-anchor="middle" fill="#232f3e">NAT</text>
  
  <rect x="490" y="240" width="40" height="30" rx="5" fill="#FF9900" stroke="#E05243" stroke-width="1"/>
  <text x="510" y="260" font-family="Arial" font-size="10" font-weight="bold" text-anchor="middle" fill="#232f3e">NAT</text>
  
  <!-- EC2 인스턴스 -->
  <rect x="260" y="240" width="40" height="30" rx="5" fill="#D86613" stroke="#E05243" stroke-width="1"/>
  <text x="280" y="260" font-family="Arial" font-size="10" font-weight="bold" text-anchor="middle" fill="#232f3e">웹</text>
  
  <rect x="570" y="240" width="40" height="30" rx="5" fill="#D86613" stroke="#E05243" stroke-width="1"/>
  <text x="590" y="260" font-family="Arial" font-size="10" font-weight="bold" text-anchor="middle" fill="#232f3e">웹</text>
  
  <rect x="260" y="330" width="40" height="30" rx="5" fill="#D86613" stroke="#E05243" stroke-width="1"/>
  <text x="280" y="350" font-family="Arial" font-size="10" font-weight="bold" text-anchor="middle" fill="#232f3e">앱</text>
  
  <rect x="570" y="330" width="40" height="30" rx="5" fill="#D86613" stroke="#E05243" stroke-width="1"/>
  <text x="590" y="350" font-family="Arial" font-size="10" font-weight="bold" text-anchor="middle" fill="#232f3e">앱</text>
  
  <rect x="260" y="420" width="40" height="30" rx="5" fill="#D86613" stroke="#E05243" stroke-width="1"/>
  <text x="280" y="440" font-family="Arial" font-size="10" font-weight="bold" text-anchor="middle" fill="#232f3e">DB</text>
  
  <rect x="570" y="420" width="40" height="30" rx="5" fill="#D86613" stroke="#E05243" stroke-width="1"/>
  <text x="590" y="440" font-family="Arial" font-size="10" font-weight="bold" text-anchor="middle" fill="#232f3e">DB</text>
  
  <!-- 로드 밸런서 -->
  <rect x="370" y="180" width="60" height="30" rx="5" fill="#BDDDF4" stroke="#147EBA" stroke-width="1"/>
  <text x="400" y="200" font-family="Arial" font-size="12" font-weight="bold" text-anchor="middle" fill="#147EBA">ALB</text>
  
  <!-- S3 VPC 엔드포인트 -->
  <rect x="370" y="480" width="60" height="30" rx="5" fill="#BDDDF4" stroke="#147EBA" stroke-width="1"/>
  <text x="400" y="500" font-family="Arial" font-size="12" font-weight="bold" text-anchor="middle" fill="#147EBA">S3 EP</text>
  
  <!-- 인터넷 -->
  <ellipse cx="400" cy="30" rx="60" ry="20" fill="#7AA5D2" stroke="#147EBA" stroke-width="1"/>
  <text x="400" y="35" font-family="Arial" font-size="14" font-weight="bold" text-anchor="middle" fill="#ffffff">인터넷</text>
  
  <!-- 연결선 -->
  <!-- 인터넷 <-> IGW -->
  <line x1="400" y1="50" x2="400" y2="80" stroke="#232f3e" stroke-width="2"/>
  
  <!-- IGW <-> ALB -->
  <line x1="400" y1="110" x2="400" y2="180" stroke="#232f3e" stroke-width="2"/>
  
  <!-- ALB <-> 웹 서버 -->
  <line x1="370" y1="195" x2="280" y2="240" stroke="#232f3e" stroke-width="1" stroke-dasharray="5,5"/>
  <line x1="430" y1="195" x2="570" y2="240" stroke="#232f3e" stroke-width="1" stroke-dasharray="5,5"/>
  
  <!-- NAT <-> 인터넷 -->
  <line x1="200" y1="240" x2="370" y2="95" stroke="#232f3e" stroke-width="1" stroke-dasharray="5,5"/>
  <line x1="510" y1="240" x2="430" y2="95" stroke="#232f3e" stroke-width="1" stroke-dasharray="5,5"/>
  
  <!-- 웹 <-> 앱 -->
  <line x1="280" y1="270" x2="280" y2="330" stroke="#232f3e" stroke-width="1"/>
  <line x1="590" y1="270" x2="590" y2="330" stroke="#232f3e" stroke-width="1"/>
  
  <!-- 앱 <-> DB -->
  <line x1="280" y1="360" x2="280" y2="420" stroke="#232f3e" stroke-width="1"/>
  <line x1="590" y1="360" x2="590" y2="420" stroke="#232f3e" stroke-width="1"/>
  
  <!-- 보안 그룹 -->
  <rect x="720" y="220" width="30" height="30" rx="5" fill="#FFCDD2" stroke="#D32F2F" stroke-width="1"/>
  <text x="735" y="240" font-family="Arial" font-size="10" font-weight="bold" text-anchor="middle" fill="#D32F2F">SG</text>
  
  <!-- 보안 그룹 연결 -->
  <line x1="720" y1="235" x2="660" y2="235" stroke="#D32F2F" stroke-width="1" stroke-dasharray="5,5"/>
  <line x1="720" y1="235" x2="660" y2="330" stroke="#D32F2F" stroke-width="1" stroke-dasharray="5,5"/>
  <line x1="720" y1="235" x2="660" y2="420" stroke="#D32F2F" stroke-width="1" stroke-dasharray="5,5"/>
</svg>