<?xml version="1.0" encoding="UTF-8" standalone="no"?>
<svg width="800" height="600" xmlns="http://www.w3.org/2000/svg">
  <!-- 배경 -->
  <rect x="0" y="0" width="800" height="600" fill="#f8f9fa"/>
  
  <!-- 제목 -->
  <text x="400" y="50" font-family="Arial" font-size="24" font-weight="bold" text-anchor="middle" fill="#333333">클라우드 배포 모델</text>
  
  <!-- 퍼블릭 클라우드 -->
  <rect x="50" y="100" width="300" height="200" rx="20" fill="#e3f2fd" stroke="#1976d2" stroke-width="2"/>
  <text x="200" y="130" font-family="Arial" font-size="20" font-weight="bold" text-anchor="middle" fill="#1976d2">퍼블릭 클라우드</text>
  
  <!-- 퍼블릭 클라우드 아이콘 -->
  <path d="M200,180 C170,170 140,180 130,200 C110,195 90,205 95,225 C90,240 100,255 115,260 C120,275 135,280 150,275 C165,285 185,280 195,265 C210,270 225,260 220,245 C230,230 220,210 205,205 C205,190 195,175 200,180" fill="#bbdefb" stroke="#1976d2" stroke-width="2"/>
  <text x="200" y="220" font-family="Arial" font-size="14" text-anchor="middle" fill="#1976d2">AWS, Azure, GCP</text>
  
  <!-- 퍼블릭 클라우드 특징 -->
  <text x="80" y="260" font-family="Arial" font-size="14" text-anchor="start" fill="#333333">• 서비스 제공업체가 소유 및 운영</text>
  <text x="80" y="280" font-family="Arial" font-size="14" text-anchor="start" fill="#333333">• 여러 고객이 인프라 공유</text>
  <text x="80" y="300" font-family="Arial" font-size="14" text-anchor="start" fill="#333333">• 사용량 기반 과금</text>
  
  <!-- 프라이빗 클라우드 -->
  <rect x="450" y="100" width="300" height="200" rx="20" fill="#f3e5f5" stroke="#7b1fa2" stroke-width="2"/>
  <text x="600" y="130" font-family="Arial" font-size="20" font-weight="bold" text-anchor="middle" fill="#7b1fa2">프라이빗 클라우드</text>
  
  <!-- 프라이빗 클라우드 아이콘 -->
  <rect x="550" y="160" width="100" height="70" fill="#e1bee7" stroke="#7b1fa2" stroke-width="2"/>
  <polygon points="550,160 600,140 650,160" fill="#e1bee7" stroke="#7b1fa2" stroke-width="2"/>
  <text x="600" y="200" font-family="Arial" font-size="14" text-anchor="middle" fill="#7b1fa2">단일 조직 전용</text>
  
  <!-- 프라이빗 클라우드 특징 -->
  <text x="480" y="260" font-family="Arial" font-size="14" text-anchor="start" fill="#333333">• 단일 조직을 위한 전용 환경</text>
  <text x="480" y="280" font-family="Arial" font-size="14" text-anchor="start" fill="#333333">• 높은 수준의 보안 및 제어</text>
  <text x="480" y="300" font-family="Arial" font-size="14" text-anchor="start" fill="#333333">• 온프레미스 또는 호스팅 가능</text>
  
  <!-- 하이브리드 클라우드 -->
  <rect x="50" y="350" width="300" height="200" rx="20" fill="#fff3e0" stroke="#e65100" stroke-width="2"/>
  <text x="200" y="380" font-family="Arial" font-size="20" font-weight="bold" text-anchor="middle" fill="#e65100">하이브리드 클라우드</text>
  
  <!-- 하이브리드 클라우드 아이콘 -->
  <path d="M150,430 C130,425 110,430 105,440 C95,435 85,445 90,455 C85,465 95,475 105,475 C110,485 120,490 130,485 C140,490 150,485 155,475 C165,480 175,470 170,460 C175,450 165,440 155,435 C155,430 150,425 150,430" fill="#bbdefb" stroke="#1976d2" stroke-width="2"/>
  <rect x="200" y="430" width="50" height="35" fill="#e1bee7" stroke="#7b1fa2" stroke-width="2"/>
  <polygon points="200,430 225,420 250,430" fill="#e1bee7" stroke="#7b1fa2" stroke-width="2"/>
  <line x1="170" y1="455" x2="200" y2="455" stroke="#e65100" stroke-width="2" stroke-dasharray="5,3"/>
  <text x="200" y="500" font-family="Arial" font-size="14" text-anchor="middle" fill="#e65100">퍼블릭 + 프라이빗</text>
  
  <!-- 하이브리드 클라우드 특징 -->
  <text x="80" y="510" font-family="Arial" font-size="14" text-anchor="start" fill="#333333">• 퍼블릭과 프라이빗 환경 통합</text>
  <text x="80" y="530" font-family="Arial" font-size="14" text-anchor="start" fill="#333333">• 워크로드 이동성</text>
  
  <!-- 멀티 클라우드 -->
  <rect x="450" y="350" width="300" height="200" rx="20" fill="#e8f5e9" stroke="#2e7d32" stroke-width="2"/>
  <text x="600" y="380" font-family="Arial" font-size="20" font-weight="bold" text-anchor="middle" fill="#2e7d32">멀티 클라우드</text>
  
  <!-- 멀티 클라우드 아이콘 -->
  <path d="M550,430 C530,425 510,430 505,440 C495,435 485,445 490,455 C485,465 495,475 505,475 C510,485 520,490 530,485 C540,490 550,485 555,475 C565,480 575,470 570,460 C575,450 565,440 555,435 C555,430 550,425 550,430" fill="#bbdefb" stroke="#1976d2" stroke-width="2"/>
  <path d="M650,430 C630,425 610,430 605,440 C595,435 585,445 590,455 C585,465 595,475 605,475 C610,485 620,490 630,485 C640,490 650,485 655,475 C665,480 675,470 670,460 C675,450 665,440 655,435 C655,430 650,425 650,430" fill="#c8e6c9" stroke="#2e7d32" stroke-width="2"/>
  <line x1="570" y1="455" x2="590" y2="455" stroke="#2e7d32" stroke-width="2" stroke-dasharray="5,3"/>
  <text x="600" y="500" font-family="Arial" font-size="14" text-anchor="middle" fill="#2e7d32">여러 클라우드 제공업체</text>
  
  <!-- 멀티 클라우드 특징 -->
  <text x="480" y="510" font-family="Arial" font-size="14" text-anchor="start" fill="#333333">• 여러 클라우드 제공업체 활용</text>
  <text x="480" y="530" font-family="Arial" font-size="14" text-anchor="start" fill="#333333">• 벤더 종속 방지</text>
  
  <!-- 비유 설명 -->
  <rect x="50" y="570" width="700" height="30" rx="15" fill="#e8f5e9" stroke="#388e3c" stroke-width="1"/>
  <text x="400" y="590" font-family="Arial" font-size="14" text-anchor="middle" fill="#388e3c">비유: 대중교통(퍼블릭), 자가용(프라이빗), 혼합 이용(하이브리드), 다양한 교통수단(멀티)</text>
</svg>